<svg width="20" height="16" viewBox="0 0 20 16" fill="none" xmlns="http://www.w3.org/2000/svg">
							<path d="M3.00577 7.51205C2.72962 7.51205 2.50577 7.7359 2.50577 8.01205C2.50577 8.28819 2.72962 8.51205 3.00577 8.51205L17.0058 8.51205C17.2819 8.51205 17.5058 8.28819 17.5058 8.01205C17.5058 7.7359 17.2819 7.51205 17.0058 7.51205L3.00577 7.51205Z" fill="white"></path>
							<path d="M3.31555 7.62494C3.10401 7.44744 2.78863 7.47504 2.61113 7.68657C2.43363 7.89811 2.46122 8.21349 2.67276 8.39099L8.03507 12.8905C8.24661 13.068 8.56199 13.0404 8.73949 12.8289C8.91699 12.6173 8.88939 12.302 8.67786 12.1245L3.31555 7.62494Z" fill="white"></path>
							<path d="M3.33898 8.37498C3.12745 8.55248 2.81207 8.52489 2.63457 8.31335C2.45707 8.10181 2.48466 7.78644 2.6962 7.60893L8.05851 3.10942C8.27004 2.93192 8.58542 2.95951 8.76292 3.17105C8.94042 3.38259 8.91283 3.69796 8.70129 3.87547L3.33898 8.37498Z" fill="white"></path>
						</svg>