<svg width="40" height="16" viewBox="0 0 40 16" fill="none" xmlns="http://www.w3.org/2000/svg">
							<path d="M36.9942 7.51205C37.2704 7.51205 37.4942 7.73591 37.4942 8.01205C37.4942 8.28819 37.2704 8.51205 36.9942 8.51205L2.99423 8.51205C2.71809 8.51205 2.49423 8.28819 2.49423 8.01205C2.49423 7.7359 2.71809 7.51205 2.99423 7.51205L36.9942 7.51205Z" fill="white"></path>
							<path d="M36.6845 7.62494C36.896 7.44744 37.2114 7.47504 37.3889 7.68657C37.5664 7.89811 37.5388 8.21349 37.3272 8.39099L31.9649 12.8905C31.7534 13.068 31.438 13.0404 31.2605 12.8289C31.083 12.6173 31.1106 12.302 31.3221 12.1245L36.6845 7.62494Z" fill="white"></path>
							<path d="M36.661 8.37498C36.8726 8.55248 37.1879 8.52489 37.3654 8.31335C37.5429 8.10181 37.5153 7.78644 37.3038 7.60893L31.9415 3.10942C31.73 2.93192 31.4146 2.95951 31.2371 3.17105C31.0596 3.38259 31.0872 3.69796 31.2987 3.87547L36.661 8.37498Z" fill="white"></path>
						</svg>