<?xml version="1.0" encoding="UTF-8"?>
<svg xmlns="http://www.w3.org/2000/svg" width="170" height="170" viewBox="0 0 170 170" fill="none">
  <linearGradient id="MyGradient">
    <stop offset="0%" stop-color="#FCF0BC"></stop>
    <stop offset="75%" stop-color="#FCD1DD"></stop>
    <stop offset="100%" stop-color="#F9B7F0"></stop>
  </linearGradient>
  <path d="M170 85C170 131.944 131.944 170 85 170C38.0558 170 0 131.944 0 85C0 38.0558 38.0558 0 85 0C131.944 0 170 38.0558 170 85Z" fill="url(#MyGradient)"></path>
  <path d="M97.8787 83.0187H50.891C49.7175 83.0187 48.768 83.9682 48.768 85.1416V114.863C48.768 118.375 51.6249 121.232 55.1368 121.232H93.6328C97.1447 121.232 100.002 118.375 100.002 114.863V85.1416C100.002 83.9682 99.0521 83.0187 97.8787 83.0187ZM86.9809 95.7563C86.9809 102.78 81.2673 108.494 74.2433 108.494C67.2193 108.494 61.5057 102.78 61.5057 95.7563V93.6333C61.5057 92.4599 62.4552 91.5104 63.6286 91.5104C64.802 91.5104 65.7515 92.4599 65.7515 93.6333V95.7563C65.7515 100.44 69.56 104.248 74.2433 104.248C78.9266 104.248 82.735 100.44 82.735 95.7563V93.6333C82.735 92.4599 83.6846 91.5104 84.858 91.5104C86.0314 91.5104 86.9809 92.4599 86.9809 93.6333V95.7563Z" fill="#fff"></path>
  <path d="M119.108 66.0351H108.21V61.5062C108.21 54.4823 102.497 48.7686 95.4727 48.7686C88.4487 48.7686 82.735 54.4823 82.735 61.5062V66.0351H71.8373C70.6639 66.0351 69.7144 66.9847 69.7144 68.1581V78.7728H97.8787C101.391 78.7728 104.247 81.6297 104.247 85.1416V114.863C104.247 117.261 103.417 119.452 102.07 121.232H114.862C118.374 121.232 121.231 118.375 121.231 114.863V68.1581C121.231 66.9847 120.281 66.0351 119.108 66.0351ZM103.964 66.0351H86.9809V61.5062C86.9809 56.8229 90.7893 53.0145 95.4727 53.0145C100.156 53.0145 103.964 56.8229 103.964 61.5062V66.0351Z" fill="#fff"></path>
</svg>
