<svg viewBox="0 0 24 24" fill="none" xmlns="http://www.w3.org/2000/svg" id="Round-Alt-Arrow-Right--Streamline-Solar" height="24" width="24">
  <desc>
    Round Alt Arrow Right Streamline Icon: https://streamlinehq.com
  </desc>
  <path fill-rule="evenodd" clip-rule="evenodd" d="M12 22c5.5228 0 10 -4.4772 10 -10 0 -5.52285 -4.4772 -10 -10 -10C6.47715 2 2 6.47715 2 12c0 5.5228 4.47715 10 10 10ZM9.96967 8.46967c0.29293 -0.29289 0.76773 -0.29289 1.06063 0l3 3.00003c0.2929 0.2929 0.2929 0.7677 0 1.0606l-3 3c-0.2929 0.2929 -0.7677 0.2929 -1.06063 0 -0.29289 -0.2929 -0.29289 -0.7677 0 -1.0606L12.4393 12 9.96967 9.53033c-0.29289 -0.29289 -0.29289 -0.76777 0 -1.06066Z" fill="#000000" stroke-width="1"></path>
</svg>